<svg id="Layer_1" data-name="Layer 1" xmlns="http://www.w3.org/2000/svg" viewBox="0 0 954.26 731.55"><title>contact</title><path d="M477,731.52q-213.64,0-427.28,0c-13.45,0-25.25-4-35-13.36A46.51,46.51,0,0,1,.06,684.32c0-.83,0-1.67,0-2.5q0-316,0-632.07C0,36.38,3.93,24.66,13.16,15A46.58,46.58,0,0,1,47.45.05c.84,0,1.67,0,2.5,0Q477.24,0,904.52,0c14.33,0,26.6,4.56,36.54,14.94A46.87,46.87,0,0,1,954.2,46c.06,1.08.06,2.17.06,3.25V682.28c0,22.41-13.22,41-34,47a58.73,58.73,0,0,1-16.24,2.11Q690.54,731.6,477,731.52Zm.13-699.42H50.89c-1.33,0-2.67,0-4,0a15.32,15.32,0,0,0-12.55,7.51c-2,3.15-2.26,6.68-2.26,10.31q0,315.78,0,631.54A17.53,17.53,0,0,0,32.2,685a23.09,23.09,0,0,0,1.7,5.94c3.36,6.35,8.92,8.55,16,8.55q427.25-.08,854.51,0c1.08,0,2.16,0,3.24-.08a15.19,15.19,0,0,0,12-7.07c2.14-3.17,2.61-6.74,2.61-10.48q0-316,0-632a11.15,11.15,0,0,0,0-2.24c-.46-2.18-.67-4.52-1.62-6.47-3.21-6.55-8.73-9-15.91-9Q690.9,32.15,477.15,32.1Z"/><path d="M477,415c-16.7-.22-30.93-6.42-43.57-17.19-24.59-20.92-49.42-41.55-74.14-62.32Q324.18,306,289.12,276.5,249.27,243,209.39,209.58q-30.3-25.44-60.58-50.91Q110.4,126.41,71.93,94.18c-4.64-3.88-8.42-8.09-8.27-14.61s3.08-11.38,8.87-14.25a15,15,0,0,1,16.71,1.55c5,3.84,9.75,8,14.59,12.12q37.1,31.13,74.19,62.27l73.19,61.52q41.57,34.92,83.16,69.83,38.14,32,76.26,64.08c15.55,13.06,31.06,26.17,46.67,39.15,11.64,9.68,28.49,9.4,40.45-.64q49.25-41.31,98.43-82.69,55.16-46.32,110.32-92.61,51-42.87,102.06-85.77,27.62-23.2,55.26-46.38c7.19-6,17.09-5.38,23,1.5s5,16.85-2.24,22.94q-40.86,34.4-81.82,68.71l-77,64.72-72.65,61q-36.89,31-73.8,62c-20.64,17.33-41.25,34.72-62,52A63.09,63.09,0,0,1,477,415Z"/><path d="M318.56,413a17.24,17.24,0,0,1-4.85,11.68q-20.64,22.07-41.23,44.17-45.14,48.38-90.29,96.74-26.76,28.65-53.53,57.28-18.5,19.8-36.94,39.64c-6.5,7-16.4,7.64-23.22,1.42-6.66-6.06-6.91-16.12-.48-23Q98.67,608,129.35,575.18l78.21-83.77,62.7-67.17c6.87-7.36,13.69-14.77,20.63-22.07a15.69,15.69,0,0,1,17.66-3.78A16.09,16.09,0,0,1,318.56,413Z"/><path d="M890.33,653.09c0,5.16-3.87,10.86-9.84,13.34a15.69,15.69,0,0,1-17.68-3.72c-8.08-8.5-16.06-17.11-24.07-25.69q-15.51-16.6-31-33.25Q758.7,551.2,709.62,498.64q-34.68-37.15-69.34-74.3a16,16,0,0,1,.38-22.68,15.81,15.81,0,0,1,22.65.48c10.59,11.06,20.92,22.37,31.38,33.56q40.81,43.69,81.65,87.4,31.27,33.48,62.53,67l47,50.4C888.84,643.67,890.41,647.41,890.33,653.09Z"/></svg>