<?xml version="1.0" encoding="utf-8"?>
<!-- Generator: Adobe Illustrator 24.0.1, SVG Export Plug-In . SVG Version: 6.00 Build 0)  -->
<svg version="1.1" id="Capa_1" xmlns="http://www.w3.org/2000/svg" xmlns:xlink="http://www.w3.org/1999/xlink" x="0px" y="0px"
	 viewBox="0 0 512 345" style="enable-background:new 0 0 512 345;" xml:space="preserve">
<style type="text/css">
	.st0{fill:#C4493F;}
</style>
<g>
	<path class="st0" d="M504.5,0H7.5C3.4,0,0,3.4,0,7.5v330c0,4.1,3.4,7.5,7.5,7.5h497c4.1,0,7.5-3.4,7.5-7.5V7.5
		C512,3.4,508.6,0,504.5,0z M15,51.7c2.5,2.6,5.4,5,8.5,7l89.3,59.3c1.3,0.8,2.7,1.3,4.1,1.3c2.4,0,4.8-1.2,6.3-3.4
		c2.3-3.5,1.4-8.1-2.1-10.4L31.8,46.2C21.3,39.3,15,27.6,15,15h482c0,12.6-6.3,24.3-16.8,31.2L276.7,181.4
		c-12.6,8.4-28.9,8.4-41.5,0L146,122.1c-3.4-2.3-8.1-1.4-10.4,2.1c-2.3,3.5-1.4,8.1,2.1,10.4l57.1,37.9L23.5,286.3
		c-3.1,2.1-5.9,4.4-8.5,7L15,51.7z M15,330c0-12.6,6.3-24.3,16.8-31.2l176.6-117.3l18.6,12.4c8.8,5.9,18.9,8.8,29,8.8
		s20.2-2.9,29-8.8l18.6-12.4l176.6,117.3c10.5,7,16.8,18.6,16.8,31.2L15,330z M497,293.3c-2.5-2.6-5.4-5-8.5-7L317.2,172.5
		L488.5,58.7c3.1-2.1,5.9-4.4,8.5-7L497,293.3z"/>
</g>
</svg>
