<svg id="Layer_1" data-name="Layer 1" xmlns="http://www.w3.org/2000/svg" viewBox="0 0 360 360"><title>digital_media</title><path d="M118.08,123.56v97.17l45-14.69V75.12L132.36,51.4,146,101.22ZM137.3,143h-8.42l4.28-7.29h8.42Z"/><path d="M117.32,221.72V123.27L145.15,101,131.06,49.66l32.68,25.23V206.68Zm1.43-97.82v95.85l43.56-14.27v-130l-28.69-22.2,13.2,48.23Zm18.89,19.76h-10l5-8.72h10Zm-7.59-1.43h6.82l3.38-5.86h-6.77Z"/><polygon points="253.18 103.77 208.05 94.84 208.05 223 253.18 256.93 253.18 103.77"/><path d="M253.9,258.35l-46.56-35V94l46.56,9.22Zm-45.14-35.66,43.72,32.81V104.36l-43.72-8.65Z"/><polygon points="298.18 131.68 298.18 290.74 322.29 308.88 322.29 149.38 298.18 131.68"/><path d="M323,310.34l-25.54-19.2V130.26L323,149Zm-24.11-20,22.68,17.12V149.75l-22.68-16.67Z"/><polygon points="73.1 159.9 36.94 207.74 66.45 237.6 73.1 235.43 73.1 159.9"/><path d="M66.26,238.41,36,207.81l37.81-50V236ZM37.89,207.62l28.76,29.11,5.7-1.87V162Z"/></svg>