<?xml version="1.0" encoding="utf-8"?>
<!-- Generator: Adobe Illustrator 24.0.1, SVG Export Plug-In . SVG Version: 6.00 Build 0)  -->
<svg version="1.1" id="Layer_1" xmlns="http://www.w3.org/2000/svg" xmlns:xlink="http://www.w3.org/1999/xlink" x="0px" y="0px"
	 viewBox="0 0 287 260.7" style="enable-background:new 0 0 287 260.7;" xml:space="preserve">
<title>digital_media</title>
<path d="M82.1,73.9v97.2l45-14.7V25.5L96.4,1.7L110,51.6L82.1,73.9z M101.3,93.3h-8.4l4.3-7.3h8.4L101.3,93.3z"/>
<path d="M81.3,172.1V73.6l27.8-22.3L95.1,0l32.7,25.2V157L81.3,172.1z M82.8,74.2v95.8l43.6-14.3v-130L97.6,3.6l13.2,48.2L82.8,74.2
	z M101.6,94h-10l5-8.7h10L101.6,94z M94.1,92.6h6.8l3.4-5.9h-6.8L94.1,92.6z"/>
<polygon points="217.2,54.1 172.1,45.2 172.1,173.3 217.2,207.3 "/>
<path d="M217.9,208.7l-46.6-35V44.3l46.6,9.2V208.7z M172.8,173l43.7,32.8V54.7L172.8,46V173z"/>
<polygon points="262.2,82 262.2,241.1 286.3,259.2 286.3,99.7 "/>
<path d="M287,260.7l-25.5-19.2V80.6L287,99.3V260.7z M262.9,240.7l22.7,17.1V100.1l-22.7-16.7V240.7z"/>
<polygon points="37.1,110.2 0.9,158.1 30.4,187.9 37.1,185.8 "/>
<path d="M30.3,188.8L0,158.1l37.8-50v78.2L30.3,188.8z M1.9,158l28.8,29.1l5.7-1.9v-72.9L1.9,158z"/>
</svg>
