<?xml version="1.0" encoding="utf-8"?>
<!-- Generator: Adobe Illustrator 24.0.1, SVG Export Plug-In . SVG Version: 6.00 Build 0)  -->
<svg version="1.1" id="Layer_1" xmlns="http://www.w3.org/2000/svg" xmlns:xlink="http://www.w3.org/1999/xlink" x="0px" y="0px"
	 viewBox="0 0 391 260.7" style="enable-background:new 0 0 391 260.7;" xml:space="preserve">
<title>digital_media</title>
<path d="M134.1,73.9v97.2l45-14.7V25.5L148.4,1.7L162,51.6L134.1,73.9z M153.3,93.3h-8.4l4.3-7.3h8.4L153.3,93.3z"/>
<path d="M133.3,172.1V73.6l27.8-22.3L147.1,0l32.7,25.2V157L133.3,172.1z M134.8,74.2V170l43.6-14.3v-130L149.6,3.6l13.2,48.2
	L134.8,74.2z M153.6,94h-10l5-8.7h10L153.6,94z M146.1,92.6h6.8l3.4-5.9h-6.8L146.1,92.6z"/>
<polygon points="269.2,54.1 224.1,45.2 224.1,173.3 269.2,207.3 "/>
<path d="M269.9,208.7l-46.6-35V44.3l46.6,9.2V208.7z M224.8,173l43.7,32.8V54.7L224.8,46V173z"/>
<polygon points="314.2,82 314.2,241.1 338.3,259.2 338.3,99.7 "/>
<path d="M339,260.7l-25.5-19.2V80.6L339,99.3V260.7z M314.9,240.7l22.7,17.1V100.1l-22.7-16.7V240.7z"/>
<polygon points="89.1,110.2 52.9,158.1 82.4,187.9 89.1,185.8 "/>
<path d="M82.3,188.8L52,158.1l37.8-50v78.2L82.3,188.8z M53.9,158l28.8,29.1l5.7-1.9v-72.9L53.9,158z"/>
</svg>
