<?xml version="1.0" encoding="utf-8"?>
<!-- Generator: Adobe Illustrator 24.0.1, SVG Export Plug-In . SVG Version: 6.00 Build 0)  -->
<svg version="1.1" id="Capa_1" xmlns="http://www.w3.org/2000/svg" xmlns:xlink="http://www.w3.org/1999/xlink" x="0px" y="0px"
	 viewBox="0 0 512 442.2" style="enable-background:new 0 0 512 442.2;" xml:space="preserve">
<style type="text/css">
	.st0{fill:#C4493F;}
</style>
<g>
	<g>
		<path class="st0" d="M488.7,244.4c-7,0-11.6,4.7-11.6,11.6v151.3c0,7-4.7,11.6-11.6,11.6h-419c-7,0-11.6-4.7-11.6-11.6V256
			c0-7-4.7-11.6-11.6-11.6s-11.6,4.7-11.6,11.6v151.3c0,19.8,15.1,34.9,34.9,34.9h418.9c19.8,0,34.9-15.1,34.9-34.9V256
			C500.4,249,495.7,244.4,488.7,244.4z"/>
	</g>
</g>
<g>
	<g>
		<path class="st0" d="M477.1,81.5H34.9C15.1,81.5,0,96.6,0,116.4v74.5c0,16.2,11.6,30.2,26.8,33.7l182.7,40.7v37.2
			c0,7,4.7,11.6,11.6,11.6h69.8c7,0,11.6-4.7,11.6-11.6v-37.2l182.7-40.7c15.2-3.5,26.8-17.5,26.8-33.8v-74.5
			C512,96.6,496.9,81.5,477.1,81.5z M279.3,290.9h-46.5v-46.5h46.5V290.9z M488.7,190.8c0,5.8-3.5,10.5-9.3,11.6L302.5,242v-9.3
			c0-7-4.7-11.6-11.6-11.6h-69.8c-7,0-11.6,4.7-11.6,11.6v9.3L32.6,202.5c-5.8-1.2-9.3-5.8-9.3-11.6v-74.5c0-7,4.7-11.6,11.6-11.6
			h442.2c7,0,11.6,4.7,11.6,11.6V190.8z"/>
	</g>
</g>
<g>
	<g>
		<path class="st0" d="M314.2,0H197.8c-19.8,0-34.9,15.1-34.9,34.9v11.6c0,7,4.7,11.6,11.6,11.6s11.6-4.7,11.6-11.6V34.9
			c0-7,4.7-11.6,11.6-11.6h116.4c7,0,11.6,4.7,11.6,11.6v11.6c0,7,4.7,11.6,11.6,11.6c7,0,11.6-4.7,11.6-11.6V34.9
			C349.1,15.1,334,0,314.2,0z"/>
	</g>
</g>
</svg>
