<?xml version="1.0" encoding="utf-8"?>
<!-- Generator: Adobe Illustrator 24.0.1, SVG Export Plug-In . SVG Version: 6.00 Build 0)  -->
<svg version="1.1" id="Layer_1" xmlns="http://www.w3.org/2000/svg" xmlns:xlink="http://www.w3.org/1999/xlink" x="0px" y="0px"
	 viewBox="0 0 480.5 512" style="enable-background:new 0 0 480.5 512;" xml:space="preserve">
<path d="M272,369H157.1c-5.6,0-10.1,4.5-10.1,10.1s4.5,10.1,10.1,10.1H272c5.6,0,10.1-4.5,10.1-10.1C282.1,373.5,277.6,369,272,369z
	"/>
<path d="M103.4,430.7c0,5.6,4.5,10.1,10.1,10.1h56.2c5.6,0,10.1-4.5,10.1-10.1s-4.5-10.1-10.1-10.1h-56.2
	C107.9,420.6,103.4,425.1,103.4,430.7z"/>
<path d="M249.4,430.7c0,5.6,4.5,10.1,10.1,10.1h56.2c5.6,0,10.1-4.5,10.1-10.1s-4.5-10.1-10.1-10.1h-56.2
	C253.9,420.6,249.4,425.1,249.4,430.7z"/>
<path d="M214.5,420.6c-5.6,0-10.1,4.5-10.1,10.1s4.5,10.1,10.1,10.1h0.2c5.6,0,10.1-4.5,10.1-10.1s-4.5-10.1-10.1-10.1H214.5z"/>
<path d="M10.1,166.5c5.6,0,10.1-4.5,10.1-10.1v-0.2c0-5.6-4.5-10.1-10.1-10.1S0,150.7,0,156.3v0.2C0,162,4.5,166.5,10.1,166.5z"/>
<path d="M468.7,397.3l-45.2-45.2V97c0-0.3,0-0.6,0-1c0-0.1,0-0.3-0.1-0.4c0-0.2,0-0.4-0.1-0.5c0-0.2-0.1-0.3-0.1-0.5
	c0-0.1-0.1-0.3-0.1-0.4c0-0.2-0.1-0.3-0.2-0.5c0-0.1-0.1-0.3-0.1-0.4c-0.1-0.2-0.1-0.3-0.2-0.5c-0.1-0.1-0.1-0.3-0.2-0.4
	c-0.1-0.1-0.2-0.3-0.2-0.4c-0.1-0.1-0.2-0.3-0.2-0.4c-0.1-0.1-0.2-0.3-0.3-0.4c-0.1-0.1-0.2-0.3-0.3-0.4c-0.1-0.1-0.2-0.2-0.3-0.3
	c0,0,0-0.1-0.1-0.1l-75-87c-0.1-0.1-0.1-0.1-0.2-0.2c-0.1-0.2-0.3-0.3-0.4-0.5c-0.1-0.1-0.2-0.2-0.3-0.3c-0.2-0.1-0.3-0.3-0.5-0.4
	c-0.1-0.1-0.2-0.2-0.3-0.3c-0.2-0.1-0.3-0.2-0.5-0.4c-0.1-0.1-0.2-0.1-0.3-0.2c-0.2-0.1-0.4-0.2-0.6-0.3c-0.1,0-0.2-0.1-0.3-0.1
	c-0.2-0.1-0.5-0.2-0.7-0.3c-0.1,0-0.2-0.1-0.3-0.1c-0.3-0.1-0.5-0.1-0.8-0.2c-0.1,0-0.2,0-0.2-0.1c-0.3-0.1-0.6-0.1-0.8-0.1
	c-0.1,0-0.1,0-0.2,0c-0.4,0-0.7-0.1-1.1-0.1H45C20.2,0,0,20.2,0,45.1v66.3c0,5.6,4.5,10.1,10.1,10.1s10.1-4.5,10.1-10.1V45.1
	c0-13.7,11.2-24.9,24.9-24.9h283.3v64.9c0,12.2,9.9,22.1,22.1,22.1h52.9v224.8l-22.1-22.1c-0.1-0.1-0.1-0.1-0.2-0.2
	c-0.1-0.1-0.1-0.1-0.2-0.2L333.4,262c9.7-18.6,15.2-39.6,15.2-62c0-73.9-60.1-134-134-134c-73.9,0-134,60.1-134,134
	c0,35.3,13.7,67.4,36,91.4c0.5,0.6,1,1.2,1.6,1.7c24.4,25.3,58.6,41,96.4,41c22.3,0,43.4-5.5,62-15.2l47.5,47.5
	c0.1,0.1,0.1,0.1,0.2,0.2c0.1,0.1,0.1,0.1,0.2,0.2l78.9,79v21.3c0,13.7-11.2,24.9-24.9,24.9H45c-13.7,0-24.9-11.2-24.9-24.9V201.2
	c0-5.6-4.5-10.1-10.1-10.1S0,195.6,0,201.2v265.8C0,491.8,20.2,512,45,512h333.4c24.8,0,45-20.2,45-45.1v-4.2
	c5.5,2.8,11.1,4.1,16.5,4.1c10.7,0,20.7-4.9,27.8-12C481.9,440.7,487,415.7,468.7,397.3L468.7,397.3z M348.5,85.1V37.2L391.4,87h-41
	C349.3,87,348.5,86.1,348.5,85.1z M214.6,86.1c62.8,0,113.9,51.1,113.9,113.9c0,20.8-5.6,40.3-15.4,57.1c-0.7,0.8-1.3,1.8-1.7,2.8
	c-2,3.2-4.1,6.3-6.4,9.3c-12-22.1-31.5-39-54.6-47.9c13.6-11,22.4-27.8,22.4-46.6c0-33-26.8-59.8-59.8-59.8
	c-33,0-59.8,26.8-59.8,59.8c0,18.8,8.7,35.6,22.4,46.6c-7.9,3-15.5,7.1-22.6,12c-12.7,8.9-23,20.3-30.6,33.5
	c-13.6-18.8-21.7-41.8-21.7-66.7C100.7,137.2,151.8,86.1,214.6,86.1L214.6,86.1z M173.3,174.6c0-21.9,17.8-39.7,39.7-39.7
	c21.9,0,39.7,17.8,39.7,39.7c0,21.9-17.8,39.7-39.7,39.7C191.1,214.3,173.3,196.5,173.3,174.6L173.3,174.6z M136.6,282.9
	c13.8-29.3,43.7-48.5,76.4-48.5c33.7,0,63.9,20.1,77.3,50.5c-4.9,4.4-10.2,8.4-15.9,11.9c-1,0.4-1.9,1-2.8,1.7
	c-16.8,9.8-36.3,15.4-57.1,15.4C184.4,313.9,157,302.1,136.6,282.9L136.6,282.9z M308.3,295.6c0.7-0.5,1.3-1.1,1.8-1.8
	c4.4-4.5,8.5-9.3,12.2-14.3l37.3,37.3l-28.4,28.4L294,307.9C299.1,304.1,303.9,300,308.3,295.6L308.3,295.6z M453.5,440.6
	c-6.5,6.5-17.1,9.7-27.5-0.7l-80.5-80.6l28.4-28.4l32.2,32.2c0.1,0.1,0.3,0.3,0.4,0.4l48,48C464.7,421.9,459.5,434.6,453.5,440.6
	L453.5,440.6z"/>
</svg>
