<?xml version="1.0" encoding="utf-8"?>
<!-- Generator: Adobe Illustrator 24.0.1, SVG Export Plug-In . SVG Version: 6.00 Build 0)  -->
<svg version="1.1" id="Layer_1" xmlns="http://www.w3.org/2000/svg" xmlns:xlink="http://www.w3.org/1999/xlink" x="0px" y="0px"
	 viewBox="0 0 480.6 512.3" style="enable-background:new 0 0 480.6 512.3;" xml:space="preserve">
<style type="text/css">
	.st0{fill:#C4493F;}
</style>
<path class="st0" d="M272,369.2H157.2c-5.6,0-10.1,4.5-10.1,10.1s4.5,10.1,10.1,10.1h114.9c5.6,0,10.1-4.5,10.1-10.1
	C282.1,373.7,277.6,369.2,272,369.2z"/>
<path class="st0" d="M103.4,430.9c0,5.6,4.5,10.1,10.1,10.1h56.2c5.6,0,10.1-4.5,10.1-10.1s-4.5-10.1-10.1-10.1h-56.2
	C107.9,420.8,103.4,425.3,103.4,430.9z"/>
<path class="st0" d="M249.4,430.9c0,5.6,4.5,10.1,10.1,10.1h56.2c5.6,0,10.1-4.5,10.1-10.1s-4.5-10.1-10.1-10.1h-56.2
	C253.9,420.8,249.4,425.3,249.4,430.9z"/>
<path class="st0" d="M214.5,420.8c-5.6,0-10.1,4.5-10.1,10.1s4.5,10.1,10.1,10.1h0.2c5.6,0,10.1-4.5,10.1-10.1s-4.5-10.1-10.1-10.1
	H214.5z"/>
<path class="st0" d="M10.1,166.7c5.6,0,10.1-4.5,10.1-10.1v-0.2c0-5.6-4.5-10.1-10.1-10.1S0,150.8,0,156.4v0.2
	C0,162.2,4.5,166.7,10.1,166.7z"/>
<path class="st0" d="M468.7,397.5l-45.2-45.2V97.2c0-0.3,0-0.6,0-1c0-0.1,0-0.3-0.1-0.4c0-0.2,0-0.4-0.1-0.5c0-0.2-0.1-0.3-0.1-0.5
	c0-0.1-0.1-0.3-0.1-0.4c0-0.2-0.1-0.3-0.2-0.5c0-0.1-0.1-0.3-0.1-0.4c-0.1-0.2-0.1-0.3-0.2-0.5c-0.1-0.1-0.1-0.3-0.2-0.4
	s-0.2-0.3-0.2-0.4c-0.1-0.1-0.2-0.3-0.2-0.4c-0.1-0.1-0.2-0.3-0.3-0.4c-0.1-0.1-0.2-0.3-0.3-0.4c-0.1-0.1-0.2-0.2-0.3-0.3
	c0,0,0-0.1-0.1-0.1l-75-87c-0.1-0.1-0.1-0.1-0.2-0.2c-0.1-0.2-0.3-0.3-0.4-0.5c-0.1-0.1-0.2-0.2-0.3-0.3c-0.2-0.1-0.3-0.3-0.5-0.4
	c-0.1-0.1-0.2-0.2-0.3-0.3c-0.2-0.1-0.3-0.2-0.5-0.4c-0.1-0.1-0.2-0.1-0.3-0.2c-0.2-0.1-0.4-0.2-0.6-0.3c-0.1,0-0.2-0.1-0.3-0.1
	c-0.2-0.1-0.5-0.2-0.7-0.3c-0.1,0-0.2-0.1-0.3-0.1c-0.3-0.1-0.5-0.2-0.8-0.2c-0.1,0-0.2,0-0.2-0.1c-0.3-0.1-0.6-0.1-0.8-0.1
	c-0.1,0-0.1,0-0.2,0c-0.4,0-0.7-0.1-1.1-0.1H45.1c-24.8,0-45,20.2-45,45.1v66.3c0,5.6,4.5,10.1,10.1,10.1s10.1-4.5,10.1-10.1V45.3
	c0-13.7,11.2-24.9,24.9-24.9h283.3v64.9c0,12.2,9.9,22.1,22.1,22.1h52.7v224.8l-22.1-22.1c-0.1-0.1-0.1-0.1-0.2-0.2
	s-0.1-0.1-0.2-0.2l-47.4-47.5c9.7-18.6,15.2-39.6,15.2-62c0-73.9-60.1-134-134-134s-134,60.1-134,134c0,35.3,13.7,67.4,36,91.4
	c0.5,0.6,1,1.2,1.6,1.7c24.4,25.3,58.6,41,96.4,41c22.3,0,43.4-5.5,62-15.2l47.5,47.5c0.1,0.1,0.1,0.1,0.2,0.2s0.1,0.1,0.2,0.2
	l78.9,79v21.3c0,13.7-11.2,24.9-24.9,24.9H45.1c-13.7,0-24.9-11.2-24.9-24.9V201.4c0-5.6-4.5-10.1-10.1-10.1S0,195.8,0,201.4v265.8
	c0,24.9,20.2,45.1,45,45.1h333.4c24.8,0,45-20.2,45-45.1V463c5.5,2.8,11.1,4.1,16.5,4.1c10.7,0,20.7-4.9,27.8-12
	C482,440.9,487.1,415.9,468.7,397.5L468.7,397.5z M348.5,85.3V37.4l42.9,49.8h-41C349.4,87.2,348.5,86.3,348.5,85.3z M214.6,86.3
	c62.8,0,113.9,51.1,113.9,113.9c0,20.8-5.6,40.3-15.4,57.1c-0.7,0.8-1.3,1.8-1.7,2.8c-2,3.2-4.1,6.3-6.4,9.3
	c-12-22.1-31.5-39-54.6-47.9c13.6-11,22.4-27.8,22.4-46.6c0-33-26.8-59.8-59.8-59.8s-59.8,26.8-59.8,59.8c0,18.8,8.7,35.6,22.4,46.6
	c-7.9,3-15.5,7.1-22.6,12c-12.7,8.9-23,20.3-30.6,33.5c-13.6-18.8-21.7-41.8-21.7-66.7C100.7,137.4,151.8,86.3,214.6,86.3
	L214.6,86.3z M173.4,174.8c0-21.9,17.8-39.7,39.7-39.7s39.7,17.8,39.7,39.7s-17.8,39.7-39.7,39.7S173.4,196.7,173.4,174.8
	L173.4,174.8z M136.6,283.1c13.8-29.3,43.7-48.5,76.4-48.5c33.7,0,63.9,20.1,77.3,50.5c-4.9,4.4-10.2,8.4-15.9,11.9
	c-1,0.4-1.9,1-2.8,1.7c-16.8,9.8-36.3,15.4-57.1,15.4C184.5,314.1,157,302.3,136.6,283.1L136.6,283.1z M308.4,295.8
	c0.7-0.5,1.3-1.1,1.8-1.8c4.4-4.5,8.5-9.3,12.2-14.3l37.3,37.3l-28.4,28.3L294.1,308C299.1,304.3,303.9,300.2,308.4,295.8
	L308.4,295.8z M453.6,440.8c-6.5,6.5-17.1,9.7-27.5-0.7l-80.5-80.6l28.4-28.4l32.2,32.2c0.1,0.1,0.3,0.3,0.4,0.4l48,48
	C464.8,422.1,459.6,434.8,453.6,440.8L453.6,440.8z"/>
</svg>
