<svg xmlns="http://www.w3.org/2000/svg" viewBox="0 0 512 512"><path d="M351.68 53.653c69.653 33.067 119.68 100.8 127.253 181.013h32C500.053 103.253 390.187 0 256 0c-4.8 0-9.387.427-14.187.747L323.2 82.133l28.48-28.48zM218.24 37.227c-12.48-12.48-32.747-12.48-45.227 0L37.227 173.013c-12.48 12.48-12.48 32.747 0 45.227l256.427 256.427c12.48 12.48 32.747 12.48 45.227 0L474.667 338.88c12.48-12.48 12.48-32.747 0-45.227L218.24 37.227zm98.133 414.826L59.84 195.627 195.627 59.84l256.427 256.427-135.681 135.786zm-156.053 6.294C90.667 425.28 40.64 357.547 33.067 277.333h-32C11.947 408.747 121.813 512 256 512c4.8 0 9.387-.427 14.187-.747L188.8 429.867l-28.48 28.48z"/></svg>